Coordinates
version=1
nRows=16
nColumns=38
inDegrees=no

Units are S.I. units (second, meters, Newtons, ...)
If the header above contains a line with 'inDegrees', this indicates whether rotational values are in degrees (yes) or radians (no).

endheader
time	pelvis_tilt	pelvis_list	pelvis_rotation	pelvis_tx	pelvis_ty	pelvis_tz	hip_flexion_r	hip_adduction_r	hip_rotation_r	knee_angle_r	ankle_angle_r	subtalar_angle_r	mtp_angle_r	hip_flexion_l	hip_adduction_l	hip_rotation_l	knee_angle_l	ankle_angle_l	subtalar_angle_l	mtp_angle_l	lumbar_extension	lumbar_bending	lumbar_rotation	arm_flex_r	arm_add_r	arm_rot_r	elbow_flex_r	pro_sup_r	wrist_flex_r	wrist_dev_r	arm_flex_l	arm_add_l	arm_rot_l	elbow_flex_l	pro_sup_l	wrist_flex_l	wrist_dev_l
0	-2.8878	1.41322	-1.88585	0.560325	-0.389111	1.0609	-0.152589	-0.0206647	-0.226707	0.439436	-0.0192901	0	0	0.19412	0.0460919	-0.223369	0.655544	-0.0762343	0	0	-0.40817	0.00278578	0.0445755	-0.123592	-0.153232	-0.551977	0.44902	0.676313	0	0	-0.135702	-0.480487	0.804781	0.658345	0.869419	0	0
0.01	-2.911	1.41605	-1.87028	0.561261	-0.378444	1.05909	-0.16909	-0.015418	-0.21851	0.424563	-0.0138044	0	0	0.220621	0.0010897	-0.344596	0.657726	-0.102864	0	0	-0.403158	0.00293828	0.0541713	-0.127088	-0.152565	-0.55348	0.454965	0.669271	0	0	-0.142741	-0.470926	0.801811	0.649153	0.866439	0	0
0.02	-2.90647	1.42112	-1.87698	0.561579	-0.367999	1.05707	-0.178267	-0.0151008	-0.219277	0.417574	-0.00868956	0	0	0.229051	0.00383477	-0.34601	0.599615	-0.11098	0	0	-0.399574	0.000425221	0.0575801	-0.12645	-0.151699	-0.552386	0.457304	0.666794	0	0	-0.14859	-0.462201	0.794754	0.640366	0.865269	0	0
0.03	-2.90899	1.42441	-1.87711	0.561882	-0.357351	1.055	-0.188996	-0.0146928	-0.220934	0.411279	-0.00461408	0	0	0.235471	0.00469162	-0.350941	0.545806	-0.117926	0	0	-0.388342	-0.00153258	0.0418603	-0.115863	-0.152572	-0.540862	0.449533	0.671655	0	0	-0.170607	-0.452911	0.778025	0.631989	0.859845	0	0
0.04	-2.9136	1.42748	-1.87468	0.562112	-0.346504	1.0528	-0.199678	-0.0142756	-0.22068	0.406032	0.00183495	0	0	0.241452	0.00577216	-0.353564	0.494995	-0.126496	0	0	-0.381103	-0.00329355	0.0320416	-0.11677	-0.165838	-0.466191	0.449651	0.606394	0	0	-0.187755	-0.442908	0.76046	0.623494	0.858093	0	0
0.05	-2.91707	1.43068	-1.87419	0.56237	-0.335555	1.05052	-0.208895	-0.0147089	-0.218723	0.402686	0.00716548	0	0	0.247679	0.00717783	-0.35589	0.448245	-0.132139	0	0	-0.375368	-0.00531446	0.0274057	-0.11282	-0.166156	-0.458011	0.448244	0.606866	0	0	-0.199877	-0.433774	0.749258	0.614768	0.856448	0	0
0.06	-2.91885	1.43387	-1.87591	0.562626	-0.324561	1.04816	-0.216674	-0.015841	-0.216929	0.403323	0.0125026	0	0	0.253661	0.00974104	-0.355163	0.404648	-0.137201	0	0	-0.370113	-0.00781924	0.0242751	-0.109711	-0.165996	-0.45203	0.44799	0.607592	0	0	-0.210203	-0.424968	0.739428	0.605543	0.855573	0	0
0.07	-2.91967	1.43683	-1.8789	0.562846	-0.313513	1.0458	-0.22388	-0.0173661	-0.215831	0.406391	0.0179276	0	0	0.258781	0.0133831	-0.350884	0.363558	-0.142447	0	0	-0.365931	-0.0106495	0.0228456	-0.107576	-0.165455	-0.448134	0.449283	0.608831	0	0	-0.218327	-0.416476	0.731292	0.59581	0.855564	0	0
0.08	-2.9214	1.43894	-1.88201	0.563131	-0.302358	1.04355	-0.231152	-0.0193786	-0.214653	0.409769	0.0222467	0	0	0.263324	0.0162679	-0.348726	0.329329	-0.14532	0	0	-0.363042	-0.0142125	0.0232781	-0.105912	-0.164304	-0.446929	0.451148	0.609732	0	0	-0.224849	-0.409288	0.725755	0.586687	0.855918	0	0
0.09	-2.92122	1.43987	-1.88745	0.563416	-0.291028	1.04144	-0.239232	-0.0227523	-0.213316	0.413868	0.0250841	0	0	0.266932	0.018652	-0.349321	0.302621	-0.145255	0	0	-0.36158	-0.0189298	0.0246806	-0.104109	-0.162667	-0.447489	0.453022	0.610568	0	0	-0.230465	-0.40342	0.72115	0.578347	0.857028	0	0
0.1	-2.86042	1.44515	-1.95778	0.56433	-0.279821	1.03815	-0.231542	-0.0316735	-0.208787	0.397191	0.0297915	0	0	0.277236	0.0273294	-0.342707	0.278453	-0.147246	0	0	-0.351373	-0.0314016	0.0289914	-0.114813	-0.173253	-0.380248	0.464699	0.536427	0	0	-0.234948	-0.404095	0.732221	0.574784	0.843124	0	0
0.11	-2.9148	1.43461	-1.90807	0.564382	-0.268412	1.03808	-0.260023	-0.0338613	-0.207312	0.427439	0.0317683	0	0	0.262959	0.0280765	-0.338042	0.254994	-0.152426	0	0	-0.366071	-0.0323978	0.030793	-0.112499	-0.173021	-0.377683	0.468788	0.534784	0	0	-0.234751	-0.39704	0.73018	0.563651	0.842379	0	0
0.12	-2.91158	1.4312	-1.91802	0.564943	-0.256767	1.03662	-0.271597	-0.039475	-0.203597	0.433583	0.0319676	0	0	0.260957	0.0308591	-0.339097	0.244322	-0.155286	0	0	-0.36879	-0.0400494	0.0344331	-0.112977	-0.170386	-0.376711	0.472079	0.534448	0	0	-0.23736	-0.394312	0.728338	0.556336	0.841862	0	0
0.13	-2.90919	1.42793	-1.92689	0.565481	-0.244902	1.03527	-0.283367	-0.0444966	-0.199446	0.439347	0.0312547	0	0	0.259751	0.0323176	-0.342045	0.242615	-0.158097	0	0	-0.370763	-0.0477303	0.0383001	-0.114287	-0.167102	-0.377368	0.4749	0.533917	0	0	-0.239669	-0.392165	0.726302	0.54884	0.841628	0	0
0.14	-2.90743	1.42493	-1.93512	0.56597	-0.232799	1.03401	-0.295076	-0.049311	-0.193584	0.444734	0.029274	0	0	0.259337	0.0324907	-0.347269	0.249454	-0.160905	0	0	-0.371866	-0.0552774	0.0424924	-0.116659	-0.163369	-0.379183	0.47791	0.533766	0	0	-0.241774	-0.390274	0.723727	0.540968	0.842306	0	0
0.15	-2.90651	1.4223	-1.94212	0.566412	-0.220445	1.03282	-0.30575	-0.0542003	-0.186281	0.451845	0.0259605	0	0	0.259351	0.0315928	-0.353044	0.263446	-0.163568	0	0	-0.372255	-0.0624875	0.0467684	-0.119817	-0.159725	-0.379028	0.480675	0.536785	0	0	-0.243832	-0.389239	0.720769	0.533861	0.843935	0	0
